<svg xmlns="http://www.w3.org/2000/svg" width="391.643" height="368.425" viewBox="0 0 103.622 97.479"><path d="M11.591 22.22l7.417 33.194 7.416-33.074 11.186-.16-15.956 65.106s-2.887 11.907-17.4 9.983l.08-10.023s6.485 1.203 7.918-3.548L15 73.415 0 22.23zm26.369-.131l-.13 8.57 5.272-.04.069 45.353 10.71-.092.165-45.194 7.796-.064.028-8.363-7.796-.056-.014-9.185s.27-2.098 2.112-2.155l5.652-.06.06-10.263-4.82-.01S44.224.006 43.146 12.961l-.128 9.242z" fill="#fff"/><path d="M77.603 75.26l7.417-33.195 7.417 33.074 11.185.16-15.956-65.106S84.78-1.714 70.266.21l.081 10.023s6.485-1.203 7.918 3.548l2.746 10.283-14.999 51.184z" fill="#b5179f"/></svg>